<?xml version="1.0" standalone="no"?>
<!DOCTYPE svg PUBLIC "-//W3C//DTD SVG 20010904//EN"
 "http://www.w3.org/TR/2001/REC-SVG-20010904/DTD/svg10.dtd">
<svg version="1.0" xmlns="http://www.w3.org/2000/svg"
 width="1262.000000pt" height="1262.000000pt" viewBox="0 0 1262.000000 1262.000000"
 preserveAspectRatio="xMidYMid meet">
<metadata>
Created by potrace 1.14, written by Peter Selinger 2001-2017
</metadata>
<g transform="translate(0.000000,1262.000000) scale(0.100000,-0.100000)"
fill="#000000" stroke="none">
<path d="M6420 12149 c-52 -4 -120 -12 -151 -18 -30 -6 -69 -14 -85 -17 -57
-9 -274 -77 -274 -85 0 -5 -5 -9 -12 -9 -24 0 -261 -112 -349 -165 -51 -30
-96 -55 -100 -55 -4 0 -12 -6 -16 -13 -4 -7 -31 -32 -60 -55 -49 -41 -60 -45
-195 -73 -79 -16 -151 -32 -160 -35 -10 -3 -30 -7 -45 -10 -16 -3 -37 -8 -48
-11 -11 -4 -24 -8 -30 -9 -148 -33 -501 -149 -710 -234 -132 -53 -536 -248
-655 -316 -341 -195 -689 -442 -960 -683 -94 -84 -387 -374 -465 -461 -160
-178 -356 -430 -494 -637 -273 -409 -522 -918 -672 -1374 -106 -325 -200 -733
-235 -1015 -4 -32 -8 -66 -9 -74 -3 -27 -16 -144 -20 -185 -20 -205 -25 -605
-12 -852 5 -78 10 -150 11 -160 2 -10 7 -49 10 -88 4 -38 9 -81 11 -95 2 -14
8 -59 14 -100 78 -577 276 -1211 543 -1744 96 -191 257 -466 363 -621 13 -19
10 -24 -45 -68 -48 -40 -69 -50 -122 -58 -35 -6 -73 -17 -85 -25 -20 -12 -32
-11 -110 16 -150 50 -213 45 -355 -26 -46 -23 -81 -50 -115 -90 -26 -31 -63
-71 -82 -88 -78 -71 -98 -98 -142 -186 -19 -38 -22 -60 -20 -141 1 -87 -1 -98
-24 -133 -30 -44 -31 -56 -7 -56 26 1 55 28 97 93 48 73 66 85 152 99 37 5 76
17 86 26 14 12 43 17 125 18 172 2 295 48 393 144 31 30 66 78 79 106 17 38
28 50 40 47 10 -3 27 7 41 24 13 16 35 34 49 40 14 6 58 25 99 43 l74 33 21
-29 c250 -344 611 -726 951 -1004 1021 -837 2281 -1291 3600 -1295 115 0 394
11 480 20 114 11 162 16 195 20 798 97 1584 367 2260 778 767 467 1399 1089
1869 1840 407 650 692 1413 796 2132 4 22 8 47 10 55 2 8 7 42 10 75 4 33 8
67 10 75 2 8 7 51 10 95 4 44 8 91 11 105 7 42 18 338 18 470 0 129 -11 418
-18 480 -3 19 -10 83 -16 141 -6 58 -12 114 -14 125 -2 10 -7 42 -10 69 -35
253 -113 599 -192 854 -341 1098 -989 2047 -1889 2767 -422 337 -943 639
-1432 829 l-122 47 -44 66 c-58 85 -274 282 -310 282 -6 0 -8 3 -4 6 3 3 -11
16 -32 28 -21 11 -76 42 -122 68 -84 47 -325 148 -353 148 -8 0 -16 4 -18 9
-6 16 -170 51 -308 67 -74 8 -198 24 -275 34 -161 23 -270 28 -405 19z"/>
</g>
</svg>
